HIERARCHY
ROOT Hips
{
	OFFSET 0.000000 0.000000 0.000000 
	CHANNELS 6 Xposition Yposition Zposition Yrotation Zrotation Xrotation 
	JOINT Lumbar
	{
		OFFSET 0.000000 0.000000 0.000000 
		CHANNELS 3 Zrotation Xrotation Yrotation
		JOINT Neck
		{
			OFFSET 0.000000 0.445665 0.000000 
			CHANNELS 3 Zrotation Xrotation Yrotation
			End Site
			{
				OFFSET 0.000000 0.227535 0.000000 
			}
		}
		JOINT RightShoulder
		{
			OFFSET 0.019635 0.377685 0.194865 
			CHANNELS 3 Zrotation Xrotation Yrotation
			JOINT RightElbow
			{
				OFFSET 0.000000 -0.243375 0.000000 
				CHANNELS 2 Zrotation Yrotation
				JOINT RightWrist
				{
					OFFSET 0.000000 -0.264825 0.000000 
					CHANNELS 2 Zrotation Xrotation
					End Site
					{
						OFFSET 0.006600 -0.176220 0.000990 
					}
				}
			}
		}
		JOINT LeftShoulder
		{
			OFFSET 0.019635 0.377685 -0.194865 
			CHANNELS 3 Zrotation Xrotation Yrotation
			JOINT LeftElbow
			{
				OFFSET 0.000000 -0.243375 0.000000 
				CHANNELS 2 Zrotation Yrotation
				JOINT LeftWrist
				{
					OFFSET 0.000000 -0.264825 0.000000 
					CHANNELS 2 Zrotation Xrotation
					End Site
					{
						OFFSET 0.006600 -0.176220 -0.000990 
					}
				}
			}
		}
	}
	JOINT RightHip
	{
		OFFSET 0.052140 -0.069960 0.075570 
		CHANNELS 3 Zrotation Xrotation Yrotation
		JOINT RightKnee
		{
			OFFSET 0.000000 -0.402270 0.000000 
			CHANNELS 1 Zrotation
			JOINT RightAnkle
			{
				OFFSET 0.000000 -0.404085 0.000000 
				CHANNELS 3 Zrotation Xrotation Yrotation
				End Site
				{
					OFFSET 0.204105 -0.089430 0.008415 
				}
			}
		}
	}
	JOINT LeftHip
	{
		OFFSET 0.052140 -0.069960 -0.075570 
		CHANNELS 3 Zrotation Xrotation Yrotation
		JOINT LeftKnee
		{
			OFFSET 0.000000 -0.402270 0.000000 
			CHANNELS 1 Zrotation
			JOINT LeftAnkle
			{
				OFFSET 0.000000 -0.404085 0.000000 
				CHANNELS 3 Zrotation Xrotation Yrotation
				End Site
				{
					OFFSET 0.204105 -0.089430 -0.008415 
				}
			}
		}
	}
}
MOTION
Frames: 22
Frame Time: 0.02
-1.85916 0.88588 0.35769 599.94428 0 -6.58081 -18.20057 13.69368 1.71924 -18.34006 2.86244 3.07385 44.14429 -27.24497 -12.88107 24.2291 65.1307 -8.5492 4.66099 26.4199 16.2753 -50.79946 88.37991 -70.68737 -25.15373 1.17541 14.37154 -10.67364 4.04649 -8.52574 -11.44615 -1.66793 -1.56193 21.04681 8.82366 -5.22028 -49.01464 18.569 -13.97656 -8.51873
-1.84562 0.88831 0.35676 599.33896 0 -6.65793 -18.20476 13.14912 1.82423 -18.46164 2.31675 2.916 44.39988 -25.83508 -13.72345 23.68574 66.7174 -7.48932 4.85419 26.64819 16.75375 -50.98523 88.41379 -70.14691 -24.90308 1.0769 15.37555 -10.07076 2.99482 -10.89859 -10.91194 -1.57648 -0.5931 21.09702 8.59211 -4.05496 -48.38605 18.27682 -13.34096 -8.64699
-1.8334 0.89245 0.35502 598.71311 0 -6.75399 -18.2275 12.64377 1.91123 -18.58705 1.72553 2.71837 44.71319 -24.23404 -14.75142 23.09993 68.44638 -6.36022 5.02528 26.91661 17.32333 -51.1533 88.28269 -69.82748 -24.5549 1.01306 16.52626 -9.13496 1.41428 -14.07074 -10.14795 -1.43084 0.76918 20.8752 8.41334 -3.11526 -47.20319 17.87284 -12.30257 -8.63363
-1.82065 0.89585 0.35364 598.11229 0 -6.8373 -18.24005 12.12809 2.00392 -18.69148 1.1631 2.53887 44.97506 -22.75123 -15.62511 22.54525 70.06588 -5.29219 5.20128 27.14291 17.8376 -51.32804 88.22546 -69.39398 -24.25668 0.93077 17.57221 -8.34844 0.06441 -16.86087 -9.46493 -1.30547 1.9302 20.76853 8.20569 -2.08456 -46.25229 17.49994 -11.44603 -8.68797
-1.80761 0.8991 0.35227 597.44192 0 -6.93589 -18.26173 11.57609 2.10692 -18.87709 0.56161 2.35623 45.34394 -21.12753 -16.78824 21.9351 71.89335 -4.08888 5.39921 27.47223 18.41592 -51.51001 88.16865 -69.00929 -23.93483 0.85833 18.78312 -7.56777 -1.24727 -19.73668 -8.87486 -1.1986 3.18775 20.69937 8.01964 -0.98687 -45.38512 17.19975 -10.5813 -8.72935
-1.7955 0.90304 0.35068 596.91184 0 -7.00694 -18.26778 11.11066 2.18499 -18.89446 0.03221 2.17242 45.50454 -19.75573 -17.4016 21.43239 73.31608 -3.15478 5.54629 27.59469 18.88209 -51.67194 88.0752 -68.57994 -23.63876 0.77435 19.68161 -6.69817 -2.75919 -22.61577 -8.04182 -1.04127 4.3342 20.48782 7.79988 -0.08914 -44.21468 16.72723 -9.64523 -8.76301
-1.7856 0.90867 0.3487 596.78555 0 -7.01071 -18.2309 10.87799 2.18972 -18.44762 -0.28322 1.98756 45.06274 -19.11946 -16.36642 21.23847 73.56267 -2.98232 5.55585 27.14877 18.99569 -51.78553 87.89817 -67.95932 -23.44094 0.64842 19.70649 -5.64891 -4.7427 -25.37502 -6.5583 -0.74525 5.11297 19.93798 7.48551 0.30996 -42.31179 15.7869 -8.58397 -8.81808
-1.7766 0.91489 0.34653 596.79931 0 -6.98426 -18.17674 10.73173 2.17178 -17.83144 -0.52469 1.80471 44.41214 -18.74573 -14.7866 21.15476 73.39816 -3.08454 5.51514 26.49134 18.99623 -51.87885 87.69411 -67.29023 -23.27216 0.51032 19.40687 -4.52509 -6.90065 -28.09564 -4.84527 -0.4023 5.7605 19.25668 7.1336 0.51398 -40.12952 14.68231 -7.47149 -8.86881
-1.76721 0.92071 0.34444 596.74254 0 -6.96318 -18.12695 10.54371 2.1697 -17.29157 -0.80151 1.62614 43.86465 -18.25739 -13.51234 21.02011 73.43479 -3.06148 5.49932 25.9216 19.06083 -51.9796 87.51824 -66.65285 -23.08757 0.37886 19.23926 -3.44531 -8.94761 -30.79266 -3.26117 -0.08912 6.44446 18.64189 6.79101 0.80487 -38.09319 13.66624 -6.40135 -8.91607
-1.75778 0.92712 0.34231 596.71541 0 -6.97736 -18.09185 10.36513 2.14263 -16.75327 -1.07187 1.42392 43.28188 -17.74225 -12.00184 20.88692 73.41758 -3.03724 5.47513 25.38658 19.07465 -52.08751 87.27117 -65.98022 -22.90926 0.24331 19.14242 -2.3095 -11.14732 -33.69916 -1.565 0.26087 7.23794 17.9862 6.4816 1.0929 -35.95195 12.58569 -5.23586 -8.98096
-1.74864 0.93242 0.34025 596.65838 0 -6.91147 -18.02266 10.18987 2.16361 -16.17306 -1.33849 1.27231 42.72555 -17.34794 -10.84872 20.77813 73.41142 -3.08224 5.45544 24.73135 19.1669 -52.17566 87.16593 -65.36909 -22.72774 0.11367 18.81877 -1.27893 -13.06286 -36.13992 -0.0508 0.54552 7.76975 17.39164 6.09518 1.34703 -33.977 11.60427 -4.26287 -9.01048
-1.74012 0.93461 0.3384 596.49852 0 -6.62569 -17.85606 9.97796 2.31279 -15.50491 -1.60295 1.2574 42.26609 -17.22334 -10.8387 20.70424 73.54531 -3.24772 5.47154 23.7715 19.49569 -52.21622 87.4787 -64.918 -22.51702 -0.00271 17.95288 -0.54271 -14.14962 -37.38493 0.90343 0.62975 7.58419 16.96926 5.49122 1.52383 -32.47472 10.91822 -3.83043 -8.9395
-1.73184 0.93563 0.33662 596.30059 0 -6.26176 -17.65718 9.7713 2.51284 -14.80312 -1.86715 1.29411 41.84609 -17.21216 -11.20101 20.65238 73.70033 -3.47505 5.49193 22.70266 19.90775 -52.23715 87.93208 -64.53345 -22.3056 -0.11168 16.86974 0.08064 -14.93954 -38.14427 1.66535 0.64751 7.14202 16.62026 4.81404 1.67963 -31.16369 10.34214 -3.59651 -8.83463
-1.72343 0.93713 0.33481 596.11181 0 -5.9372 -17.4777 9.57763 2.69654 -14.12546 -2.13853 1.30899 41.42453 -17.14991 -11.37801 20.59427 73.84123 -3.67598 5.50324 21.69913 20.28692 -52.26607 88.30927 -64.13151 -22.10296 -0.22032 15.88045 0.74445 -15.86671 -39.06781 2.5155 0.70153 6.83407 16.25717 4.17854 1.86748 -29.80228 9.72788 -3.27576 -8.74841
-1.71516 0.93889 0.33301 595.96492 0 -5.59402 -17.27709 9.32014 2.85178 -13.40394 -2.38019 1.31675 40.92312 -17.09489 -11.60782 20.52405 73.99405 -3.87673 5.54298 20.62029 20.64342 -52.29893 88.73818 -63.6737 -21.86322 -0.34526 14.89471 1.45676 -16.80038 -40.22566 3.37175 0.73338 6.45094 15.80565 3.50373 1.95568 -28.27142 9.05605 -2.93748 -8.6478
-1.70664 0.93981 0.3312 595.71667 0 -5.27307 -17.11377 9.19812 3.07755 -12.76879 -2.68132 1.35191 40.60447 -17.04809 -11.81846 20.48292 74.12349 -4.0921 5.52507 19.67683 21.0657 -52.31828 89.09202 -63.34875 -21.70311 -0.43399 13.86149 2.04031 -17.63516 -40.78487 4.16475 0.79288 6.16076 15.56048 2.8971 2.24613 -27.14901 8.53487 -2.68505 -8.56972
-1.6974 0.93874 0.32931 595.2248 0 -5.01846 -17.05495 9.42733 3.4948 -12.37447 -3.1746 1.44707 40.74449 -16.99736 -11.92675 20.51571 74.26232 -4.30463 5.3485 19.12076 21.67093 -52.31297 89.21333 -63.37391 -21.73853 -0.42741 12.68911 2.29301 -18.37598 -39.7712 4.84298 0.96339 6.22897 15.8417 2.46918 3.12554 -27.05599 8.38209 -2.60912 -8.55752
-1.68789 0.93686 0.32741 594.62644 0 -4.79144 -17.0359 9.79591 3.97919 -12.07029 -3.72225 1.56838 41.07472 -16.94931 -11.99746 20.57663 74.36503 -4.53345 5.114 18.70813 22.33488 -52.29338 89.25218 -63.53095 -21.85848 -0.38407 11.48949 2.41943 -19.00763 -38.17922 5.45958 1.16068 6.39405 16.33283 2.11772 4.20485 -27.37866 8.38129 -2.61502 -8.56989
-1.67846 0.93534 0.32553 594.05854 0 -4.56156 -17.00308 10.11485 4.4276 -11.7294 -4.22792 1.67997 41.34302 -16.8982 -12.06121 20.62483 74.43335 -4.77203 4.90494 18.23955 22.95968 -52.27527 89.32359 -63.62797 -21.95577 -0.35566 10.3441 2.60605 -19.61728 -36.8774 6.09615 1.333 6.48844 16.74608 1.74944 5.17786 -27.54626 8.32599 -2.59197 -8.57433
-1.66922 0.93382 0.32357 593.56539 0 -4.28916 -16.95154 10.37771 4.90293 -11.36875 -4.80912 1.78505 41.50991 -16.85968 -12.24058 20.67373 74.71309 -4.94109 4.69869 17.72827 23.64447 -52.27757 89.42273 -63.72702 -21.98685 -0.33451 9.01424 2.77986 -20.51517 -35.44292 6.76438 1.55572 6.6818 17.09055 1.30286 6.21794 -27.57705 8.21513 -2.54212 -8.56468
-1.65951 0.93213 0.3218 592.89141 0 -4.11152 -16.94814 10.78852 5.33489 -11.07174 -5.24256 1.90819 41.93163 -16.79324 -12.16355 20.72738 74.54814 -5.25722 4.47408 17.34115 24.21152 -52.23431 89.44006 -63.85311 -22.17555 -0.28957 8.06501 2.94814 -20.79548 -34.15409 7.34912 1.68239 6.70114 17.6238 1.03852 7.16274 -27.98957 8.2519 -2.5636 -8.58969
-1.64858 0.93004 0.32043 591.74587 0 -4.20121 -17.07412 11.58914 5.65251 -10.92416 -5.28368 2.08335 43.01975 -16.65446 -11.40221 20.78811 73.12716 -5.98037 4.20216 17.2663 24.48749 -52.06857 89.27306 -64.01296 -22.77995 -0.18868 8.17472 3.16434 -19.35467 -33.40642 7.76431 1.52229 6.16779 18.65483 1.25947 7.82314 -29.35031 8.68345 -2.77277 -8.71205
